mtllib material.mtl
o Default
v -0.9375 -1.125 0.125
v 0 0 0
v 0.25 0 0
v -0.6875 -1.625 0.125
v -2.6875 -4.25 0.8125
v -1.625 -3.125 0.5625
v -2.25 -3.1875 0.375
v -1.875 -4.25 0.4375
v -0.875 -1.125 -0.375
v 0 0 0
v -0.0625 -0.0625 -0.375
v -0.9375 -1.125 0.125
v -0.625 -1.5 -0.375
v -0.0625 -0.0625 -0.375
v 0.25 -0.0625 -0.375
v -0.875 -1.125 -0.375
v -2.25 -3.1875 0.375
v -1.125 -2.375 0.3125
v -1.6875 -2.375 0.3125
v -1.625 -3.125 0.5625
v -0.6875 -1.625 0.125
v 0.25 -0.0625 -0.375
v 0.25 0 0
v -0.625 -1.5 -0.375
v -3.625 -4.25 0.375
v -2.25 -3.1875 0.375
v -2.875 -3.25 0.1875
v -2.6875 -4.25 0.8125
v -1 -1 0.3125
v -0.625 0.375 -0.9375
v -0.9375 0.375 -0.0625
v -0.875 -1 -0.6875
v -3.25 -4.25 -0.9375
v -2.875 -3.25 0.1875
v -2.875 -3.25 -0.6875
v -3.625 -4.25 0.375
v -2.875 -3.25 -0.6875
v -2.1875 -2.375 0.3125
v -2.25 -2.375 -0.6875
v -2.875 -3.25 0.1875
v -2.25 -2.375 -0.6875
v -2.75 -1 0.3125
v -2.875 -1 -0.6875
v -2.1875 -2.375 0.3125
v -3.552713678800501e-15 -4.25 0.3125
v -0.625 -3.25 -0.6875
v -0.625 -3.125 0.5625
v -3.552713678800501e-15 -4.25 -0.9375
v -0.625 -3.125 0.5625
v -0.25 -2.125 -0.6875
v -0.25 -2.375 0.3125
v -0.625 -3.25 -0.6875
v -0.25 -2.375 0.3125
v -0.875 -1 -0.6875
v -1 -1 0.3125
v -0.25 -2.125 -0.6875
v -2.875 -1 -0.6875
v -2.5625 0.375 -0.25
v -2.5 0.375 -0.9375
v -2.75 -1 0.3125
v -1.125 -2.375 0.3125
v -1 -1 0.3125
v -1.875 -1 0.3125
v -0.25 -2.375 0.3125
v -2.875 -3.25 0.1875
v -1.6875 -2.375 0.3125
v -2.1875 -2.375 0.3125
v -2.25 -3.1875 0.375
v -1.625 -3.125 0.5625
v -0.25 -2.375 0.3125
v -1.125 -2.375 0.3125
v -0.625 -3.125 0.5625
v -1.875 -4.25 0.4375
v -0.625 -3.125 0.5625
v -1.625 -3.125 0.5625
v -3.552713678800501e-15 -4.25 0.3125
v -2.1875 -2.375 0.3125
v -1.875 -1 0.3125
v -2.75 -1 0.3125
v -1.125 -2.375 0.3125
v -2.75 -1 0.3125
v -1.625 0.5625 0.0625
v -2.5625 0.375 -0.25
v -1.875 -1 0.3125
v -1.875 -1 0.3125
v -0.9375 0.375 -0.0625
v -1.625 0.5625 0.0625
v -1 -1 0.3125
vt 0.18617021783869317 0.006493506493506494
vt 0.27127660335378445 0.11038961116369668
vt 0.18617021783869317 0.11038961116369668
vt 0.18617021783869317 0.006493506493506494
vt 0.27127660335378445 0.006493506493506494
vt 0.27127660335378445 0.11038961116369668
vt 0.04787234169371585 0.006493506493506494
vt 0.09042553445126147 0.11038961116369668
vt 0.04787234169371585 0.11038961116369668
vt 0.04787234169371585 0.006493506493506494
vt 0.09042553445126147 0.006493506493506494
vt 0.09042553445126147 0.11038961116369668
vt 0.005319148936170213 0.006493506493506494
vt 0.04787234169371585 0.11038961116369668
vt 0.005319148936170213 0.11038961116369668
vt 0.005319148936170213 0.006493506493506494
vt 0.04787234169371585 0.006493506493506494
vt 0.04787234169371585 0.11038961116369668
vt 0.04787234169371585 0.006493506493506494
vt 0.09042553445126147 0.11038961116369668
vt 0.04787234169371585 0.11038961116369668
vt 0.04787234169371585 0.006493506493506494
vt 0.09042553445126147 0.006493506493506494
vt 0.09042553445126147 0.11038961116369668
vt 0.13297872720880713 0.006493506493506494
vt 0.17553191996635276 0.11038961116369668
vt 0.13297872720880713 0.11038961116369668
vt 0.13297872720880713 0.006493506493506494
vt 0.17553191996635276 0.006493506493506494
vt 0.17553191996635276 0.11038961116369668
vt 0.005319148936170213 0.006493506493506494
vt 0.04787234169371585 0.11038961116369668
vt 0.005319148936170213 0.11038961116369668
vt 0.005319148936170213 0.006493506493506494
vt 0.04787234169371585 0.006493506493506494
vt 0.04787234169371585 0.11038961116369668
vt 0.005319148936170213 0.006493506493506494
vt 0.04787234169371585 0.11038961116369668
vt 0.005319148936170213 0.11038961116369668
vt 0.005319148936170213 0.006493506493506494
vt 0.04787234169371585 0.006493506493506494
vt 0.04787234169371585 0.11038961116369668
vt 0.005319148936170213 0.006493506493506494
vt 0.09042553445126147 0.11038961116369668
vt 0.005319148936170213 0.11038961116369668
vt 0.005319148936170213 0.006493506493506494
vt 0.09042553445126147 0.006493506493506494
vt 0.09042553445126147 0.11038961116369668
vt 0.18617021783869317 0.006493506493506494
vt 0.27127660335378445 0.11038961116369668
vt 0.18617021783869317 0.11038961116369668
vt 0.18617021783869317 0.006493506493506494
vt 0.27127660335378445 0.006493506493506494
vt 0.27127660335378445 0.11038961116369668
vt 0.005319148936170213 0.006493506493506494
vt 0.09042553445126147 0.11038961116369668
vt 0.005319148936170213 0.11038961116369668
vt 0.005319148936170213 0.006493506493506494
vt 0.09042553445126147 0.006493506493506494
vt 0.09042553445126147 0.11038961116369668
vt 0.27127660335378445 0.006493506493506494
vt 0.3563829888688757 0.11038961116369668
vt 0.27127660335378445 0.11038961116369668
vt 0.27127660335378445 0.006493506493506494
vt 0.3563829888688757 0.006493506493506494
vt 0.3563829888688757 0.11038961116369668
vt 0.005319148936170213 0.006493506493506494
vt 0.09042553445126147 0.11038961116369668
vt 0.005319148936170213 0.11038961116369668
vt 0.005319148936170213 0.006493506493506494
vt 0.09042553445126147 0.006493506493506494
vt 0.09042553445126147 0.11038961116369668
vt 0.005319148936170213 0.006493506493506494
vt 0.09042553445126147 0.11038961116369668
vt 0.005319148936170213 0.11038961116369668
vt 0.005319148936170213 0.006493506493506494
vt 0.09042553445126147 0.006493506493506494
vt 0.09042553445126147 0.11038961116369668
vt 0.005319148936170213 0.006493506493506494
vt 0.09042553445126147 0.11038961116369668
vt 0.005319148936170213 0.11038961116369668
vt 0.005319148936170213 0.006493506493506494
vt 0.09042553445126147 0.006493506493506494
vt 0.09042553445126147 0.11038961116369668
vt 0.005319148936170213 0.006493506493506494
vt 0.09042553445126147 0.11038961116369668
vt 0.005319148936170213 0.11038961116369668
vt 0.005319148936170213 0.006493506493506494
vt 0.09042553445126147 0.006493506493506494
vt 0.09042553445126147 0.11038961116369668
vt 0.36702128674121615 0.006493506493506494
vt 0.4521276722563074 0.11038961116369668
vt 0.36702128674121615 0.11038961116369668
vt 0.36702128674121615 0.006493506493506494
vt 0.4521276722563074 0.006493506493506494
vt 0.4521276722563074 0.11038961116369668
vt 0.09042553445126147 0.006493506493506494
vt 0.13297872720880713 0.11038961116369668
vt 0.09042553445126147 0.11038961116369668
vt 0.09042553445126147 0.006493506493506494
vt 0.13297872720880713 0.006493506493506494
vt 0.13297872720880713 0.11038961116369668
vt 0.005319148936170213 0.006493506493506494
vt 0.09042553445126147 0.11038961116369668
vt 0.005319148936170213 0.11038961116369668
vt 0.005319148936170213 0.006493506493506494
vt 0.09042553445126147 0.006493506493506494
vt 0.09042553445126147 0.11038961116369668
vt 0.27127660335378445 0.006493506493506494
vt 0.3563829888688757 0.11038961116369668
vt 0.27127660335378445 0.11038961116369668
vt 0.27127660335378445 0.006493506493506494
vt 0.3563829888688757 0.006493506493506494
vt 0.3563829888688757 0.11038961116369668
vt 0.005319148936170213 0.006493506493506494
vt 0.09042553445126147 0.11038961116369668
vt 0.005319148936170213 0.11038961116369668
vt 0.005319148936170213 0.006493506493506494
vt 0.09042553445126147 0.006493506493506494
vt 0.09042553445126147 0.11038961116369668
vt 0.005319148936170213 0.006493506493506494
vt 0.09042553445126147 0.11038961116369668
vt 0.005319148936170213 0.11038961116369668
vt 0.005319148936170213 0.006493506493506494
vt 0.09042553445126147 0.006493506493506494
vt 0.09042553445126147 0.11038961116369668
vt 0.18617021783869317 0.006493506493506494
vt 0.27127660335378445 0.11038961116369668
vt 0.18617021783869317 0.11038961116369668
vt 0.18617021783869317 0.006493506493506494
vt 0.27127660335378445 0.006493506493506494
vt 0.27127660335378445 0.11038961116369668
vn 0 0.11043152607484653 0.9938837346736188
vn 0 0.11043152607484653 0.9938837346736188
vn 0 0.11043152607484653 0.9938837346736188
vn 0.07120188545089044 0.03560094272544522 0.9968263963124662
vn 0.07120188545089044 0.03560094272544522 0.9968263963124662
vn 0.07120188545089044 0.03560094272544522 0.9968263963124662
vn -0.2966994518271015 0.465511208901142 0.8338277697899577
vn -0.2966994518271015 0.465511208901142 0.8338277697899577
vn -0.2966994518271015 0.465511208901142 0.8338277697899577
vn 0.4113875280083398 -0.1904571888927499 0.8913396440180695
vn 0.4113875280083398 -0.1904571888927499 0.8913396440180695
vn 0.4113875280083398 -0.1904571888927499 0.8913396440180695
vn -0.7939726897628095 0.6071555862892073 0.03113618391226704
vn -0.7939726897628095 0.6071555862892073 0.03113618391226704
vn -0.7939726897628095 0.6071555862892073 0.03113618391226704
vn -0.7698883713086208 0.6308807487112309 -0.0962360464135776
vn -0.7698883713086208 0.6308807487112309 -0.0962360464135776
vn -0.7698883713086208 0.6308807487112309 -0.0962360464135776
vn 0 0 -1
vn 0 0 -1
vn 0 0 -1
vn 0 0 -1
vn 0 0 -1
vn 0 0 -1
vn 0 0.07669649888473704 0.9970544855015815
vn 0 0.07669649888473704 0.9970544855015815
vn 0 0.07669649888473704 0.9970544855015815
vn -0.29617443887954614 0.47387910220727386 0.8292884288627292
vn -0.29617443887954614 0.47387910220727386 0.8292884288627292
vn -0.29617443887954614 0.47387910220727386 0.8292884288627292
vn 0.8659777076396779 -0.493278441060576 0.082213073510096
vn 0.8659777076396779 -0.493278441060576 0.082213073510096
vn 0.8659777076396779 -0.493278441060576 0.082213073510096
vn 0.8539685304168885 -0.5198069315581061 -0.02320566658741545
vn 0.8539685304168885 -0.5198069315581061 -0.02320566658741545
vn 0.8539685304168885 -0.5198069315581061 -0.02320566658741545
vn -0.3002026272496199 0.3884975176171551 0.8711762516263479
vn -0.3002026272496199 0.3884975176171551 0.8711762516263479
vn -0.3002026272496199 0.3884975176171551 0.8711762516263479
vn -0.3709668082990903 0.4800746930929404 0.794928874926622
vn -0.3709668082990903 0.4800746930929404 0.794928874926622
vn -0.3709668082990903 0.4800746930929404 0.794928874926622
vn 0.9406169815143015 0.048863219818924754 0.33593463625510767
vn 0.9406169815143015 0.048863219818924754 0.33593463625510767
vn 0.9406169815143015 0.048863219818924754 0.33593463625510767
vn 0.9801402217215898 -0.15593139891025293 0.12251752771519872
vn 0.9801402217215898 -0.15593139891025293 0.12251752771519872
vn 0.9801402217215898 -0.15593139891025293 0.12251752771519872
vn -0.9363291775690445 0.3511234415883917 0
vn -0.9363291775690445 0.3511234415883917 0
vn -0.9363291775690445 0.3511234415883917 0
vn -0.7989408824726263 0.5564052574362933 -0.2282688235636075
vn -0.7989408824726263 0.5564052574362933 -0.2282688235636075
vn -0.7989408824726263 0.5564052574362933 -0.2282688235636075
vn -0.8126831186993758 0.5804879419281256 0.05079269491871099
vn -0.8126831186993758 0.5804879419281256 0.05079269491871099
vn -0.8126831186993758 0.5804879419281256 0.05079269491871099
vn -0.7863183388224226 0.6178215519319035 0
vn -0.7863183388224226 0.6178215519319035 0
vn -0.7863183388224226 0.6178215519319035 0
vn -0.9045287244846651 -0.4111494202203023 0.11306609056058314
vn -0.9045287244846651 -0.4111494202203023 0.11306609056058314
vn -0.9045287244846651 -0.4111494202203023 0.11306609056058314
vn -0.9240022811334473 -0.37800093319095573 0.057750142570840456
vn -0.9240022811334473 -0.37800093319095573 0.057750142570840456
vn -0.9240022811334473 -0.37800093319095573 0.057750142570840456
vn 0.8683975614120955 0.4934077053477787 -0.049340770534777874
vn 0.8683975614120955 0.4934077053477787 -0.049340770534777874
vn 0.8683975614120955 0.4934077053477787 -0.049340770534777874
vn 0.8479983040050894 0.5299989400031778 0
vn 0.8479983040050894 0.5299989400031778 0
vn 0.8479983040050894 0.5299989400031778 0
vn 0.8716717369253602 -0.4754573110501964 -0.1188643277625491
vn 0.8716717369253602 -0.4754573110501964 -0.1188643277625491
vn 0.8716717369253602 -0.4754573110501964 -0.1188643277625491
vn 0.948209311861521 -0.316069770620507 0.0316069770620507
vn 0.948209311861521 -0.316069770620507 0.0316069770620507
vn 0.948209311861521 -0.316069770620507 0.0316069770620507
vn 0.8726569432620492 0.4759946963247541 0.10908211790775615
vn 0.8726569432620492 0.4759946963247541 0.10908211790775615
vn 0.8726569432620492 0.4759946963247541 0.10908211790775615
vn 0.8677848535234112 0.4821026964018951 0.12052567410047378
vn 0.8677848535234112 0.4821026964018951 0.12052567410047378
vn 0.8677848535234112 0.4821026964018951 0.12052567410047378
vn -0.9649785574603207 0.24722591141545405 -0.0877253234054837
vn -0.9649785574603207 0.24722591141545405 -0.0877253234054837
vn -0.9649785574603207 0.24722591141545405 -0.0877253234054837
vn -0.9755372173595078 0.18291322825490772 0.12194215216993848
vn -0.9755372173595078 0.18291322825490772 0.12194215216993848
vn -0.9755372173595078 0.18291322825490772 0.12194215216993848
vn 0 0 1
vn 0 0 1
vn 0 0 1
vn 0 0 1
vn 0 0 1
vn 0 0 1
vn 0 -0.1414213562373095 0.9899494936611666
vn 0 -0.1414213562373095 0.9899494936611666
vn 0 -0.1414213562373095 0.9899494936611666
vn -0.3014257244299127 0.27881879509766927 0.911812816400486
vn -0.3014257244299127 0.27881879509766927 0.911812816400486
vn -0.3014257244299127 0.27881879509766927 0.911812816400486
vn 0 0.31622776601683794 0.9486832980505139
vn 0 0.31622776601683794 0.9486832980505139
vn 0 0.31622776601683794 0.9486832980505139
vn 0 0.31622776601683794 0.9486832980505138
vn 0 0.31622776601683794 0.9486832980505138
vn 0 0.31622776601683794 0.9486832980505138
vn 0 -0.11043152607484653 0.9938837346736188
vn 0 -0.11043152607484653 0.9938837346736188
vn 0 -0.11043152607484653 0.9938837346736188
vn 0.06541174449751547 -0.1816992902708761 0.9811761674627302
vn 0.06541174449751547 -0.1816992902708761 0.9811761674627302
vn 0.06541174449751547 -0.1816992902708761 0.9811761674627302
vn 0 0 1
vn 0 0 1
vn 0 0 1
vn 0 0 0.9999999999999999
vn 0 0 0.9999999999999999
vn 0 0 0.9999999999999999
vn -0.3606387207197889 0.3948599131968492 0.8450002142412573
vn -0.3606387207197889 0.3948599131968492 0.8450002142412573
vn -0.3606387207197889 0.3948599131968492 0.8450002142412573
vn 0 0.15799050110667287 0.9874406319167054
vn 0 0.15799050110667287 0.9874406319167054
vn 0 0.15799050110667287 0.9874406319167054
vn 0.20958747666531238 0.12169595419276204 0.9701871903700751
vn 0.20958747666531238 0.12169595419276204 0.9701871903700751
vn 0.20958747666531238 0.12169595419276204 0.9701871903700751
vn 0 0.26311740579210874 0.9647638212377321
vn 0 0.26311740579210874 0.9647638212377321
vn 0 0.26311740579210874 0.9647638212377321
g tree2-trunk
usemtl 0
f 1/1/1 3/2/2 2/3/3
f 1/4/4 4/5/5 3/6/6
f 5/7/7 6/8/8 7/9/9
f 5/10/10 8/11/11 6/12/12
f 9/13/13 10/14/14 11/15/15
f 9/16/16 12/17/17 10/18/18
f 13/19/19 14/20/20 15/21/21
f 13/22/22 16/23/23 14/24/24
f 17/25/25 18/26/26 19/27/27
f 17/28/28 20/29/29 18/30/30
f 21/31/31 22/32/32 23/33/33
f 21/34/34 24/35/35 22/36/36
f 25/37/37 26/38/38 27/39/39
f 25/40/40 28/41/41 26/42/42
f 29/43/43 30/44/44 31/45/45
f 29/46/46 32/47/47 30/48/48
f 33/49/49 34/50/50 35/51/51
f 33/52/52 36/53/53 34/54/54
f 37/55/55 38/56/56 39/57/57
f 37/58/58 40/59/59 38/60/60
f 41/61/61 42/62/62 43/63/63
f 41/64/64 44/65/65 42/66/66
f 45/67/67 46/68/68 47/69/69
f 45/70/70 48/71/71 46/72/72
f 49/73/73 50/74/74 51/75/75
f 49/76/76 52/77/77 50/78/78
f 53/79/79 54/80/80 55/81/81
f 53/82/82 56/83/83 54/84/84
f 57/85/85 58/86/86 59/87/87
f 57/88/88 60/89/89 58/90/90
f 61/91/91 62/92/92 63/93/93
f 61/94/94 64/95/95 62/96/96
f 65/97/97 66/98/98 67/99/99
f 65/100/100 68/101/101 66/102/102
f 69/103/103 70/104/104 71/105/105
f 69/106/106 72/107/107 70/108/108
f 73/109/109 74/110/110 75/111/111
f 73/112/112 76/113/113 74/114/114
f 77/115/115 78/116/116 79/117/117
f 77/118/118 80/119/119 78/120/120
f 81/121/121 82/122/122 83/123/123
f 81/124/124 84/125/125 82/126/126
f 85/127/127 86/128/128 87/129/129
f 85/130/130 88/131/131 86/132/132
