mtllib material.mtl
o Default
v -4 -10 -2.25
v -4 -8 -1.75
v -4 -8 0.25
v -4.875 -10 0.25
v -4 -8 -1.75
v -4.625 -6 0.25
v -4.625 -6 -1.75
v -4 -8 0.25
v -4.5 -4 -1.75
v -3.625 -2 0.25
v -3.625 -2 -1.75
v -4.5 -4 0.25
v -4.625 -6 -1.75
v -4.5 -4 0.25
v -4.5 -4 -1.75
v -4.625 -6 0.25
v -3.625 -2 -1.75
v -2.875 0 0.25
v -3 0 -1.75
v -3.625 -2 0.25
v 0.875 -10 0.875
v 0 -8 -1.75
v 0.5 -7.375 0.25
v 2.25 -10 -1.75
v 0.5 -7.375 0.25
v -0.625 -6 -1.75
v -0.625 -6 0.25
v 0 -8 -1.75
v -0.625 -6 0.25
v 0.125 -4 -1.75
v -0.625 -4 0.375
v -0.625 -6 -1.75
v -0.625 -4 0.375
v 0.375 -2 -1.75
v 0.375 -2 0.25
v 0.125 -4 -1.75
v 0.375 -2 0.25
v -0.375 0 -1.75
v 0 0 0
v 0.375 -2 -1.75
v -2.5 -10 2
v 0.5 -7.375 0.25
v -2 -8 1.25
v 0.875 -10 0.875
v -2 -8 1.25
v -0.625 -6 0.25
v -2.625 -6 1.25
v 0.5 -7.375 0.25
v -2.625 -6 1.25
v -0.625 -4 0.375
v -1.875 -4 1.25
v -0.625 -6 0.25
v -1.875 -4 1.25
v 0.375 -2 0.25
v -1.625 -2 1.25
v -0.625 -4 0.375
v -1.625 -2 1.25
v 0 0 0
v -1.625 0 0.75
v 0.375 -2 0.25
v -3.625 -2 0.25
v -1.625 0 0.75
v -2.875 0 0.25
v -1.625 -2 1.25
v -4.5 -4 0.25
v -1.625 -2 1.25
v -3.625 -2 0.25
v -1.875 -4 1.25
v -4.625 -6 0.25
v -1.875 -4 1.25
v -4.5 -4 0.25
v -2.625 -6 1.25
v -4 -8 0.25
v -2.625 -6 1.25
v -4.625 -6 0.25
v -2 -8 1.25
v -4.875 -10 0.25
v -2 -8 1.25
v -4 -8 0.25
v -2.5 -10 2
vt 0.029411764705882353 0.0058823529411764705
vt 0.9705882352941176 0.194117649863748
vt 0.029411764705882353 0.194117649863748
vt 0.029411764705882353 0.0058823529411764705
vt 0.9705882352941176 0.0058823529411764705
vt 0.9705882352941176 0.194117649863748
vt 0.029411764705882353 0.20588235574610092
vt 0.9705882352941176 0.39411765266867244
vt 0.029411764705882353 0.39411765266867244
vt 0.029411764705882353 0.20588235574610092
vt 0.9705882352941176 0.20588235574610092
vt 0.9705882352941176 0.39411765266867244
vt 0.029411764705882353 0.6058823753805721
vt 0.9705882352941176 0.7941176582785213
vt 0.029411764705882353 0.7941176582785213
vt 0.029411764705882353 0.6058823753805721
vt 0.9705882352941176 0.6058823753805721
vt 0.9705882352941176 0.7941176582785213
vt 0.029411764705882353 0.4058823585510254
vt 0.9705882352941176 0.5941176694982192
vt 0.029411764705882353 0.5941176694982192
vt 0.029411764705882353 0.4058823585510254
vt 0.9705882352941176 0.4058823585510254
vt 0.9705882352941176 0.5941176694982192
vt 0.029411764705882353 0.8058823641608743
vt 0.9705882352941176 0.9941176470588236
vt 0.029411764705882353 0.9941176470588236
vt 0.029411764705882353 0.8058823641608743
vt 0.9705882352941176 0.8058823641608743
vt 0.9705882352941176 0.9941176470588236
vt 0.029411764705882353 0.0058823529411764705
vt 0.9705882352941176 0.194117649863748
vt 0.029411764705882353 0.194117649863748
vt 0.029411764705882353 0.0058823529411764705
vt 0.9705882352941176 0.0058823529411764705
vt 0.9705882352941176 0.194117649863748
vt 0.029411764705882353 0.20588235574610092
vt 0.9705882352941176 0.39411765266867244
vt 0.029411764705882353 0.39411765266867244
vt 0.029411764705882353 0.20588235574610092
vt 0.9705882352941176 0.20588235574610092
vt 0.9705882352941176 0.39411765266867244
vt 0.029411764705882353 0.4058823585510254
vt 0.9705882352941176 0.5941176694982192
vt 0.029411764705882353 0.5941176694982192
vt 0.029411764705882353 0.4058823585510254
vt 0.9705882352941176 0.4058823585510254
vt 0.9705882352941176 0.5941176694982192
vt 0.029411764705882353 0.6058823753805721
vt 0.9705882352941176 0.7941176582785213
vt 0.029411764705882353 0.7941176582785213
vt 0.029411764705882353 0.6058823753805721
vt 0.9705882352941176 0.6058823753805721
vt 0.9705882352941176 0.7941176582785213
vt 0.029411764705882353 0.8058823641608743
vt 0.9705882352941176 0.9941176470588236
vt 0.029411764705882353 0.9941176470588236
vt 0.029411764705882353 0.8058823641608743
vt 0.9705882352941176 0.8058823641608743
vt 0.9705882352941176 0.9941176470588236
vt 0.029411764705882353 0.0058823529411764705
vt 0.9705882352941176 0.194117649863748
vt 0.029411764705882353 0.194117649863748
vt 0.029411764705882353 0.0058823529411764705
vt 0.9705882352941176 0.0058823529411764705
vt 0.9705882352941176 0.194117649863748
vt 0.029411764705882353 0.20588235574610092
vt 0.9705882352941176 0.39411765266867244
vt 0.029411764705882353 0.39411765266867244
vt 0.029411764705882353 0.20588235574610092
vt 0.9705882352941176 0.20588235574610092
vt 0.9705882352941176 0.39411765266867244
vt 0.029411764705882353 0.4058823585510254
vt 0.9705882352941176 0.5941176694982192
vt 0.029411764705882353 0.5941176694982192
vt 0.029411764705882353 0.4058823585510254
vt 0.9705882352941176 0.4058823585510254
vt 0.9705882352941176 0.5941176694982192
vt 0.029411764705882353 0.6058823753805721
vt 0.9705882352941176 0.7941176582785213
vt 0.029411764705882353 0.7941176582785213
vt 0.029411764705882353 0.6058823753805721
vt 0.9705882352941176 0.6058823753805721
vt 0.9705882352941176 0.7941176582785213
vt 0.029411764705882353 0.8058823641608743
vt 0.9705882352941176 0.9941176470588236
vt 0.029411764705882353 0.9941176470588236
vt 0.029411764705882353 0.8058823641608743
vt 0.9705882352941176 0.8058823641608743
vt 0.9705882352941176 0.9941176470588236
vt 0.029411764705882353 0.8058823641608743
vt 0.9705882352941176 0.9941176470588236
vt 0.029411764705882353 0.9941176470588236
vt 0.029411764705882353 0.8058823641608743
vt 0.9705882352941176 0.8058823641608743
vt 0.9705882352941176 0.9941176470588236
vt 0.029411764705882353 0.6058823753805721
vt 0.9705882352941176 0.7941176582785213
vt 0.029411764705882353 0.7941176582785213
vt 0.029411764705882353 0.6058823753805721
vt 0.9705882352941176 0.6058823753805721
vt 0.9705882352941176 0.7941176582785213
vt 0.029411764705882353 0.4058823585510254
vt 0.9705882352941176 0.5941176694982192
vt 0.029411764705882353 0.5941176694982192
vt 0.029411764705882353 0.4058823585510254
vt 0.9705882352941176 0.4058823585510254
vt 0.9705882352941176 0.5941176694982192
vt 0.029411764705882353 0.20588235574610092
vt 0.9705882352941176 0.39411765266867244
vt 0.029411764705882353 0.39411765266867244
vt 0.029411764705882353 0.20588235574610092
vt 0.9705882352941176 0.20588235574610092
vt 0.9705882352941176 0.39411765266867244
vt 0.029411764705882353 0.0058823529411764705
vt 0.9705882352941176 0.194117649863748
vt 0.029411764705882353 0.194117649863748
vt 0.029411764705882353 0.0058823529411764705
vt 0.9705882352941176 0.0058823529411764705
vt 0.9705882352941176 0.194117649863748
vn -1 0 0
vn -1 0 0
vn -1 0 0
vn -0.872404326601841 0.3816768928883054 -0.3053415143106443
vn -0.872404326601841 0.3816768928883054 -0.3053415143106443
vn -0.872404326601841 0.3816768928883054 -0.3053415143106443
vn -0.9544799780350297 -0.2982749931359468 0
vn -0.9544799780350297 -0.2982749931359468 0
vn -0.9544799780350297 -0.2982749931359468 0
vn -0.9544799780350297 -0.2982749931359468 0
vn -0.9544799780350297 -0.2982749931359468 0
vn -0.9544799780350297 -0.2982749931359468 0
vn -0.9161573349021892 0.40081883401970775 0
vn -0.9161573349021892 0.40081883401970775 0
vn -0.9161573349021892 0.40081883401970775 0
vn -0.9161573349021892 0.40081883401970775 0
vn -0.9161573349021892 0.40081883401970775 0
vn -0.9161573349021892 0.40081883401970775 0
vn -0.9980525784828885 0.06237828615518053 0
vn -0.9980525784828885 0.06237828615518053 0
vn -0.9980525784828885 0.06237828615518053 0
vn -0.9980525784828885 0.06237828615518053 0
vn -0.9980525784828885 0.06237828615518053 0
vn -0.9980525784828885 0.06237828615518053 0
vn -0.9527861346806619 0.29774566708770683 0.05954913341754137
vn -0.9527861346806619 0.29774566708770683 0.05954913341754137
vn -0.9527861346806619 0.29774566708770683 0.05954913341754137
vn -0.9363291775690445 0.3511234415883917 0
vn -0.9363291775690445 0.3511234415883917 0
vn -0.9363291775690445 0.3511234415883917 0
vn 0.9617062947416682 0.07459217798550336 -0.26373662930588687
vn 0.9617062947416682 0.07459217798550336 -0.26373662930588687
vn 0.9617062947416682 0.07459217798550336 -0.26373662930588687
vn 0.6274556300887387 0.7058875838498311 0.32866723480838694
vn 0.6274556300887387 0.7058875838498311 0.32866723480838694
vn 0.6274556300887387 0.7058875838498311 0.32866723480838694
vn 0.773957299203321 0.6332377902572627 0
vn 0.773957299203321 0.6332377902572627 0
vn 0.773957299203321 0.6332377902572627 0
vn 0.905906696166393 0.2830958425519978 -0.31494412483909756
vn 0.905906696166393 0.2830958425519978 -0.31494412483909756
vn 0.905906696166393 0.2830958425519978 -0.31494412483909756
vn 0.9427863874331665 -0.02079675854631985 0.3327481367411176
vn 0.9427863874331665 -0.02079675854631985 0.3327481367411176
vn 0.9427863874331665 -0.02079675854631985 0.3327481367411176
vn 0.9363291775690445 -0.3511234415883917 0
vn 0.9363291775690445 -0.3511234415883917 0
vn 0.9363291775690445 -0.3511234415883917 0
vn 0.8944271909999159 -0.4472135954999579 0
vn 0.8944271909999159 -0.4472135954999579 0
vn 0.8944271909999159 -0.4472135954999579 0
vn 0.9365067564768227 -0.11706334455960284 0.3305317964035845
vn 0.9365067564768227 -0.11706334455960284 0.3305317964035845
vn 0.9365067564768227 -0.11706334455960284 0.3305317964035845
vn 0.9659480515032449 0.15524165113445007 -0.20698886817926676
vn 0.9659480515032449 0.15524165113445007 -0.20698886817926676
vn 0.9659480515032449 0.15524165113445007 -0.20698886817926676
vn 0.9363291775690445 0.3511234415883917 0
vn 0.9363291775690445 0.3511234415883917 0
vn 0.9363291775690445 0.3511234415883917 0
vn 0.2991087355745156 0.26858743602609564 0.9156389864525988
vn 0.2991087355745156 0.26858743602609564 0.9156389864525988
vn 0.2991087355745156 0.26858743602609564 0.9156389864525988
vn 0.30521450413786316 0.2616124321181684 0.9156435124135895
vn 0.30521450413786316 0.2616124321181684 0.9156435124135895
vn 0.30521450413786316 0.2616124321181684 0.9156435124135895
vn 0.4429092258866132 0.13840913308956662 0.8858184517732264
vn 0.4429092258866132 0.13840913308956662 0.8858184517732264
vn 0.4429092258866132 0.13840913308956662 0.8858184517732264
vn 0.3051713163256244 0.24968562244823816 0.9189818048442099
vn 0.3051713163256244 0.24968562244823816 0.9189818048442099
vn 0.3051713163256244 0.24968562244823816 0.9189818048442099
vn 0.560645113033519 -0.21024191738756962 0.8009215900478843
vn 0.560645113033519 -0.21024191738756962 0.8009215900478843
vn 0.560645113033519 -0.21024191738756962 0.8009215900478843
vn 0.4465164577487581 -0.05581455721859476 0.8930329154975162
vn 0.4465164577487581 -0.05581455721859476 0.8930329154975162
vn 0.4465164577487581 -0.05581455721859476 0.8930329154975162
vn 0.4465164577487581 -0.05581455721859476 0.8930329154975162
vn 0.4465164577487581 -0.05581455721859476 0.8930329154975162
vn 0.4465164577487581 -0.05581455721859476 0.8930329154975162
vn 0.5581888247123731 -0.22925612443543897 0.7974126067319616
vn 0.5581888247123731 -0.22925612443543897 0.7974126067319616
vn 0.5581888247123731 -0.22925612443543897 0.7974126067319616
vn 0.4086623654863723 0.22135878130511832 0.8854351252204733
vn 0.4086623654863723 0.22135878130511832 0.8854351252204733
vn 0.4086623654863723 0.22135878130511832 0.8854351252204733
vn 0.43889182563872225 0.192015173716941 0.8777836512774445
vn 0.43889182563872225 0.192015173716941 0.8777836512774445
vn 0.43889182563872225 0.192015173716941 0.8777836512774445
vn -0.3678403918973623 0.13794014696151086 0.9196009797434057
vn -0.3678403918973623 0.13794014696151086 0.9196009797434057
vn -0.3678403918973623 0.13794014696151086 0.9196009797434057
vn -0.4364357804719848 0.2182178902359924 0.8728715609439696
vn -0.4364357804719848 0.2182178902359924 0.8728715609439696
vn -0.4364357804719848 0.2182178902359924 0.8728715609439696
vn -0.43889182563872225 0.192015173716941 0.8777836512774445
vn -0.43889182563872225 0.192015173716941 0.8777836512774445
vn -0.43889182563872225 0.192015173716941 0.8777836512774445
vn -0.35564337957950964 0.044455422447438706 0.9335638713962128
vn -0.35564337957950964 0.044455422447438706 0.9335638713962128
vn -0.35564337957950964 0.044455422447438706 0.9335638713962128
vn -0.35590724264010326 0.022244202665006454 0.934256511930271
vn -0.35590724264010326 0.022244202665006454 0.934256511930271
vn -0.35590724264010326 0.022244202665006454 0.934256511930271
vn -0.441054277135977 0.16539535392599136 0.882108554271954
vn -0.441054277135977 0.16539535392599136 0.882108554271954
vn -0.441054277135977 0.16539535392599136 0.882108554271954
vn -0.4429092258866132 -0.13840913308956662 0.8858184517732264
vn -0.4429092258866132 -0.13840913308956662 0.8858184517732264
vn -0.4429092258866132 -0.13840913308956662 0.8858184517732264
vn -0.4429092258866132 -0.13840913308956662 0.8858184517732264
vn -0.4429092258866132 -0.13840913308956662 0.8858184517732264
vn -0.4429092258866132 -0.13840913308956662 0.8858184517732264
vn -0.43889182563872225 0.192015173716941 0.8777836512774445
vn -0.43889182563872225 0.192015173716941 0.8777836512774445
vn -0.43889182563872225 0.192015173716941 0.8777836512774445
vn -0.5409113391812904 0.4105130699143722 0.7340939603174655
vn -0.5409113391812904 0.4105130699143722 0.7340939603174655
vn -0.5409113391812904 0.4105130699143722 0.7340939603174655
g tree1-trunk
usemtl 1
f 1/1/1 3/2/2 2/3/3
f 1/4/4 4/5/5 3/6/6
f 5/7/7 6/8/8 7/9/9
f 5/10/10 8/11/11 6/12/12
f 9/13/13 10/14/14 11/15/15
f 9/16/16 12/17/17 10/18/18
f 13/19/19 14/20/20 15/21/21
f 13/22/22 16/23/23 14/24/24
f 17/25/25 18/26/26 19/27/27
f 17/28/28 20/29/29 18/30/30
f 21/31/31 22/32/32 23/33/33
f 21/34/34 24/35/35 22/36/36
f 25/37/37 26/38/38 27/39/39
f 25/40/40 28/41/41 26/42/42
f 29/43/43 30/44/44 31/45/45
f 29/46/46 32/47/47 30/48/48
f 33/49/49 34/50/50 35/51/51
f 33/52/52 36/53/53 34/54/54
f 37/55/55 38/56/56 39/57/57
f 37/58/58 40/59/59 38/60/60
f 41/61/61 42/62/62 43/63/63
f 41/64/64 44/65/65 42/66/66
f 45/67/67 46/68/68 47/69/69
f 45/70/70 48/71/71 46/72/72
f 49/73/73 50/74/74 51/75/75
f 49/76/76 52/77/77 50/78/78
f 53/79/79 54/80/80 55/81/81
f 53/82/82 56/83/83 54/84/84
f 57/85/85 58/86/86 59/87/87
f 57/88/88 60/89/89 58/90/90
f 61/91/91 62/92/92 63/93/93
f 61/94/94 64/95/95 62/96/96
f 65/97/97 66/98/98 67/99/99
f 65/100/100 68/101/101 66/102/102
f 69/103/103 70/104/104 71/105/105
f 69/106/106 72/107/107 70/108/108
f 73/109/109 74/110/110 75/111/111
f 73/112/112 76/113/113 74/114/114
f 77/115/115 78/116/116 79/117/117
f 77/118/118 80/119/119 78/120/120
